<?xml version="1.0" encoding="UTF-8"?>
<svg id="Layer_1" xmlns="http://www.w3.org/2000/svg" version="1.1" viewBox="0 0 733.7 132.2">
  <!-- Generator: Adobe Illustrator 29.6.1, SVG Export Plug-In . SVG Version: 2.1.1 Build 9)  -->
  <g>
    <path d="M209,69.9c-.2,0-.3-.3-.5-.4-1.2-1.2-1.8-2.1-2.9-3.1-.9-.8-1.8-1.2-3.1-1.3l-2.1-.2h-5.9c-1.5,0-2.5.4-3.8,1,0,0-1.6,1.7-1.9,3l-.4,2.2c-.3,1.4-.3,2.3-.3,3.8v2.2l.4,2.1c.2.5.3,1,.5,1.4.7,1.4,1.8,2,3.2,2.7,1.3.4,2.3.7,3.8.8h4.3l1.9-.2,1.8-.2c1.5,0,2.6-.5,3.9-1.6l1.3-1.1c1.4-1,2.5-1.4,3.9-1.2,1.3.3,2.1.5,2.4,1,.3.5.6.8.7,1.4,0,.6,0,1.8-.6,4l-.2.5-.8,1.9c-.8,1.3-1.3,2-1.8,2.6-.6.6-1.1.8-1.7,1.3-.7.4-1.4.8-2.8,1.3l-1.1.3c-2.2.8-3.4,1-4.8,1.1l-2.3.2h-4c-1.5-.2-2.5-.3-4-.4-.8,0-1.4-.2-2.3-.3l-1.9-.3c-1.3-.3-2.1-.6-2.7-.9-.6-.3-1.3-.8-2.3-1.7l-1.3-1.2c-1-1.1-1.6-2-2.1-3.3-.3-.7-.5-1.3-.7-2.1-.3-1.5-.4-2.5-.5-3.9,0-.6-.2-1.2-.2-1.9v-3.1c-.3-2.3-.2-3.6,0-4.9v-1.8c0-1.4.3-2.6.7-4.1l.6-1.8.7-1.9c.4-1.3.8-2.2,1.2-2.8.4-.5,1-1.1,2.1-2.1,1-.7,1.8-1.2,3.3-1.8.6-.3,1.2-.6,1.8-.8,1.4-.4,2.2-.4,2.8-.5,2.2-.4,3.8-.5,6-.4h1.3c1.4.3,2.2.5,2.8.8.7.3,1.3.8,2.3,2.1,1.3,1.3,2.3,1.3,3,0,.5-.9.9-1.4,1.3-1.6.5-.3,1.5-.3,3.4-.4,1.8,0,2.8.2,3.5.7s1.1.9,1.3,1.4c.3.5.4,1.7.6,3.9v1.2c.3,1.7.3,2.8.2,4.2-.2,1.5-.4,2.3-.8,2.8-.4.7-.8,1-1.3,1.3-.6.4-1.1.6-1.9.8-.9.3-1.5.3-2.3.2-.8-.2-1.3-.3-1.8-.6v-.3Z"/>
    <path d="M235.7,94.9l-1.9-.3h-.7c-2.2-.3-3.5-.8-5.1-1.5-1.2-.7-1.8-1-2.3-1.4s-.9-.8-1.3-1.3c-.5-.5-.8-1.2-1.3-2.3l-.9-2.2c-.2-.6-.3-1.2-.4-1.7-.3-1.5-.5-2.5-.7-3.9v-2c-.2-1.4-.3-2.7-.2-4.8v-1.2l.2-2,.2-2.1.3-1.7.2-2.3c.3-1.3.8-2.6,2.1-4.6l.3-.5c.8-1.1,1.3-1.7,1.8-2.2s1.1-.9,2.3-1.6l1.8-.8c1.3-.6,2.2-.8,3-1,.3,0,.6,0,1-.2,1.5-.2,2.5,0,3.9-.3h6l2.1.3,3.9,1c1.2.4,2.1.8,3.4,1.7,1,.8,1.7,1.3,2.1,1.8l.6.8.3.6c1.1,2.1,1.5,3.3,1.8,4.9.3,1.2.4,2.3.4,3.9l.2,2.1v9.9l-.3,1.9-.3,2.2-.4,1.9c-.5,1.4-.8,2.3-1.2,2.8-.3.6-.8,1.2-1.9,2.2-1.1,1.1-1.9,1.6-3.2,2.1l-1.8.6c-.6.3-1.2.5-1.8.6-1.4.4-2.5.5-4,.8-.7,0-1.3,0-2.1.2l-4.1-.2-2.1-.2h.1ZM230.5,78.1c0,.4.3.8.3,1.2.3.8.7,1.3,1.2,1.8,1.2,1.1,2.3,1.3,3.8,1.6h0l2.8.2h3.4c1.4,0,2.5-.3,3.8-.7.4-.2.8-.3,1.2-.6,1.4-.9,1.9-1.9,2.3-3.3v-.2c.3-1.4.4-2.6.4-4.1s-.2-2.4-.4-3.8v-.2c-.3-1.1-.8-2.1-1.8-3.3,0,0-.5-.3-1.5-.8-1.4-.5-2.5-.7-4-.8h-4.2c-1.4.3-2.4.5-3.8.8-.7.3-1.2.5-1.6.8-.6.4-.9.8-1.2,1.3-.8,1.3-.9,2.3-1.2,3.8v4.4l.3,1.8h.2Z"/>
    <path d="M277.9,94.9l-1.9-.3h-.7c-2.2-.3-3.5-.8-5.1-1.5-1.2-.7-1.8-1-2.3-1.4s-.9-.8-1.3-1.3c-.5-.5-.8-1.2-1.3-2.3l-.9-2.2c-.2-.6-.3-1.2-.4-1.7-.3-1.5-.5-2.5-.7-3.9v-2c-.2-1.4-.3-2.7-.2-4.8v-1.2l.2-2,.2-2.1.3-1.7.2-2.3c.3-1.3.8-2.6,2.1-4.6l.3-.5c.8-1.1,1.3-1.7,1.8-2.2s1.1-.9,2.3-1.6l1.8-.8c1.3-.6,2.2-.8,3-1,.3,0,.6,0,1-.2,1.5-.2,2.5,0,3.9-.3h6l2.1.3,3.9,1c1.2.4,2.1.8,3.4,1.7,1,.8,1.7,1.3,2.1,1.8l.6.8.3.6c1.1,2.1,1.5,3.3,1.8,4.9.3,1.2.4,2.3.4,3.9l.2,2.1v9.9l-.3,1.9-.3,2.2-.4,1.9c-.5,1.4-.8,2.3-1.2,2.8-.3.6-.8,1.2-1.9,2.2-1.1,1.1-1.9,1.6-3.2,2.1l-1.8.6c-.6.3-1.2.5-1.8.6-1.4.4-2.5.5-4,.8-.7,0-1.3,0-2.1.2l-4.1-.2-2.1-.2h.1ZM272.7,78.1c0,.4.3.8.3,1.2.3.8.7,1.3,1.2,1.8,1.2,1.1,2.3,1.3,3.8,1.6h0l2.8.2h3.4c1.4,0,2.5-.3,3.8-.7.4-.2.8-.3,1.2-.6,1.4-.9,1.9-1.9,2.3-3.3v-.2c.3-1.4.4-2.6.4-4.1s-.2-2.4-.4-3.8v-.2c-.3-1.1-.8-2.1-1.8-3.3,0,0-.5-.3-1.5-.8-1.4-.5-2.5-.7-4-.8h-4.2c-1.4.3-2.4.5-3.8.8-.7.3-1.2.5-1.6.8-.6.4-.9.8-1.2,1.3-.8,1.3-.9,2.3-1.2,3.8v4.4l.3,1.8h.2Z"/>
    <path d="M303.6,43.9c-.3-.8-.3-1.8-.2-3.1s.5-2.1.9-2.7c.4-.7.8-1,1.3-1.4s1.7-.7,4.1-.8h.8c1.4-.3,2.7-.3,4.2-.2,1.5.2,2.3.3,3.1.8.7.3,1.1.7,1.3,1.3s.4,1.7.5,4v1c.2,1.4.3,2.3.2,3.6-.2,1.4-.2,2.4,0,3.8v1.9h0v4.1h0v15.6h0v7.2c.2,1.6.7,2.7,1.5,4,0,.2.6.5,1.5,1.8.6.7.9,1.3,1.1,2,.3,1.2.5,2.1.3,3s-.3,1.5-.6,2.1c-.3.7-.6,1-1.3,1.3-.7.4-1.8.6-4.2.8h-2.4l-1.9-.2h-4.2c-.8,0-1.4-.2-2-.2-2.3-.3-2.8-1.3-3.3-1.9-.4-.4-.6-1.2-.6-2.1s0-1.8.2-2.6c.2-.9.3-1.3.6-2,.2-.3.3-.7.8-1.1,1.2-1.2,2-1.9,2.7-3.4,0,0,.2-.8.3-2.3v-.3l.3-2.2h0v-6.2l.2-2v-6.2l.2-2v-2.3l-.2-1.9-.2-2.2v-2l-.3-1.7c-.3-1.8-.9-2.8-2.2-3.5-1.3-.7-2.1-1.2-2.4-2v.2Z"/>
    <path d="M385.3,83c.8,1.3,1.8,1.5,2.7,2,.4.3.8.5,1,.8.4.4.7.9.8,1.7v2.4c-.2,1.1-.3,1.6-.7,2.2-.3.6-.8.9-1.3,1.3-.7.4-1.4.6-2.8.7-1.6.2-2.4,0-3.3-.2-.3,0-.7-.2-1-.3-1.5-.5-2.6-1-4.2-1s-1.8.2-2.8.7l-1.8.6c-1.3.5-2.5.6-4.2.5h-3.9c-1.4,0-2.5,0-3.8-.4l-.9-.4c-2.2-.9-3.3-1.5-4.4-2.4l-1.6-1.4c-1-1-1.6-1.9-2.3-3.2l-.8-1.9-.6-1.8c-.6-1.7-.8-2.7-.9-3.9l-.4-2.2v-1.8l.2-4.3c0-.8,0-1.4.2-2,.3-1.5.3-2.5.7-4,0-.6.3-1.3.6-1.9l1-1.8c.5-1.2,1-1.8,1.4-2.3s.8-.9,1.4-1.5c.2-.3.6-.4.9-.7,1.3-.8,2.3-1.2,3.7-1.6.8-.3,1.7-.4,2.8-.6l1.2-.2,4.1-.3h3.4c.7,0,1.2,0,1.7-.2,1.7-.3,2.3-1.8,2.6-3.3v-2.5c0-.8-.2-1.1-.4-1.3l-1.7-1.1c-1.9-1.2-2.6-1.9-3.1-2.6-.4-.6-.6-1.4-.6-2.7s.3-2.1.7-2.6.8-.9,1.4-1.2,1.8-.4,4-.5h2.7c1.2-.2,2.1-.2,3.4,0s2.1.4,2.8.8,1.1,1,1.6,2.2c.5,1.4.7,2.9.7,5.2v.7l-.3,2.1v14h0v2c-.2,1.4-.3,2.4-.2,3.8l.2,2.3v1.9l-.2,2.1v1.8c.2.8.2,1.5.3,2.1v4l.2,1.3c0,.4.2.8.3,1.1l-.5-.2ZM373.8,73.4c0-1.3,0-2.3.2-3.9v-.9c0-1.5-.2-2.6-.6-4.1,0,0-1.8-1.8-3.6-1.8h-3.7c-1.4.2-2.5.4-3.9.8,0,0-.5.5-1.6,1.7-.3.4-.7.8-.9,1.3-.8,1.3-1.1,2.4-1.2,3.9v4.5c0,1.6.3,2.6.8,3.9.2.8.4,1.3.8,1.9.3.6.7,1,1.1,1.4,1.2.9,2.3,1.2,3.7,1.6h2.3c1.5,0,2.6-.3,4-.7.7-.2,1.2-.5,1.6-.8,1.2-1.2,1.1-2.4,1-4l-.2-2.3.2-2.4h0Z"/>
    <path d="M405.4,75.6c-1.7.7-1.9,2.3-1.8,4v.8c.2.7.5,1.3.8,1.7,1,1.2,2.1,1.5,3.4,2,1.3.3,2.4.4,3.8.5h3.9c1.4,0,2.4-.2,3.9-.5,0,0,.7-.3,2-1.3l1.9-1.3c1.3-.7,2.5-.9,4-.9s2.3.3,2.7.7c.4.5.8.9.9,1.7.2.8.2,1.5-.2,2.8l-.5,1.8c-.6,1.3-1,2-1.4,2.6-.4.7-.8,1-1.4,1.5s-1.3.8-2.4,1.4l-1.9.8c-1.4.5-2.4.8-3.8.9-1.4.3-2.6.4-4.2.4l-3.8.2-2-.2h-2.1l-2-.4c-1.3-.2-2.3-.5-3.8-1.1-1.3-.4-2.3-.8-3.3-1.7-1-1-1.7-1.9-2.5-3.3l-.8-1.4c-.8-1.6-1.1-2.5-1.3-3.8l-.4-2.3-.3-2v-3.9l-.2-3.8.3-2.2.2-2.1.3-1.8c.3-1.4.6-2.3,1.3-3.8.5-1.4.9-2.2,1.3-2.7.3-.5.7-.8,1.2-1.4.5-.5,1.4-1.2,3.5-2.2l.3-.2c1.4-.7,2.4-1,3.8-1.3l2.3-.3,3.7-.2h4.3c1.3-.2,2.3,0,3.8.3,1.5.2,2.6.3,4.1.9l2,.7c1.3.7,2.1,1.2,3,2.1,1.2,1.1,1.8,1.9,2.4,3.1l.8,1.7c.4,1.4.7,2.4.8,4.2.3,1.3.4,2.2.3,3.6,0,1.4-.2,2.1-.3,2.8-.3.7-.5,1.2-.8,1.6-.4.4-1.1.8-2.4.8-1.4.2-2.5,0-4.2,0h-10.1c-1.6.2-2.7.2-3.9,0h-4c-.4,0-.8.2-1.2.3v.2ZM404.9,67.4c-.5,1.8,1.5,2.3,3.2,2.4h1.2l4,.3,1.8-.2h4.5c2-.3,2.3-2.2,1.8-4.1,0-.3-.6-.7-1.7-1h-.3c-1.4-.5-2.4-.8-3.9-.8h-3.6l-1.8.3c-.5,0-.9.3-1.3.3-1.6.4-2.5,1.1-3.3,2.2-.3.3-.3.6-.4.8l-.2-.2Z"/>
    <path d="M436.6,67.9v-1.7c-.2-1.4,0-2.4,0-3.8v-.2c.4-1.5,1.1-2.4,2-3.6.8-1.1,1.6-1.8,2.6-2.6h0c1.3-.8,2.3-1.2,3.4-1.6l2.1-.7c1.4-.3,2.5-.4,4-.3h4.1c1.5.3,2.5.5,3.8,1.2h.2c1.2.8,2,2.2,3.4,1.7,0,0,.2,0,.3-.2,1.3-.9,2-1.8,3.8-2l1.8-.2h2.2l1.4.2c1.7.3,3.1.8,3.6,2.4,0,.4.2.8.3,1.3l.2,1.3v5.1c-.3,1.8-1,3.1-2.8,3.6-.3,0-.7,0-1,.2l-1.3.2c-1.3,0-2.3,0-3.5-.3-1.6-.3-2.3-.7-2.7-1-1.8-1.8-2.7-2.4-3.3-2.6h-1.3c-.9,0-1.6.2-2.4,0-2.3-.2-3.6-.2-5.3,0-1.5,0-2.3.3-2.9.8s-.8,1.3-.8,2.5.3,1.8,1.1,2.2c.4.2.8.3,1.4.4,1.1,0,1.9,0,3.2.2l3.8.3h2.1c1.5,0,2.5-.3,4-.2h0c1.4,0,3.8.4,3.9.4,1.5.2,2.6.3,3.9,1,.4.3.9.6,1.4,1,1.1.9,1.4,1.3,1.4,1.3.9,1.3,1.3,1.8,1.3,1.8.4,1.5.7,2.3.8,3.7v2.3c0,1.5,0,2.5-.3,4-.2.5-.3,1.1-.7,1.7-.3.5-.6,1-.9,1.6-.9,1.2-1.7,1.9-2.9,2.8-.8.4-1.4.8-1.8.9h0c-1.4.7-2.3,1.1-3.5,1.3l-2.3.4-2.1.2h-1.7c-1.4,0-2.6-.3-4-.5h-.2c-1.3,0-2.3-.4-3.7-1.2-1.5-.9-2.8-1.3-3.9-1-1.6.4-2.4,1.4-4.1,1.6l-2,.2h-1.8c-1.7-.2-3.2-.7-3.7-2.3,0-.3-.2-.6-.3-.9-.3-1.4-.4-2.5-.3-4,0-.6.2-1.2.3-1.8v-1.1c.3-1.7.5-3.1,2.1-3.6.5-.2,1.1-.3,1.8-.3h1.3c1.5,0,2.6,0,4,.3,1.5.3,2.3.7,2.9,1.2,2,1.6,3.3,2.1,5,2.2h4c1.7.2,2.8,0,4.3,0,1.3-.3,1.9-.6,2.3-1,.3-.4.5-1.1.4-2.3,0-1.3-.5-1.8-1.3-2.2-.8-.2-1.8-.4-3.2-.6l-4.3-.3-1.9-.2h-6c-1.5,0-4-.2-4-.2-1.5-.2-2.6-.2-3.9-.9-.3-.2-.8-.6-1.3-.9-1-.8-1.7-1.5-2.3-3-.2-.5-.4-1-.5-1.7-.2-.6-.3-1.2-.3-1.9v-.3l.6-.3Z"/>
    <path d="M481.1,62.4c-.2-.7-.3-1.4-.2-3v-.7c.3-2.2,1.3-2.9,1.8-3.5s1.8-.8,4.2-1h.8l2.1-.2h.7c2.4.3,3.6.3,4.1.8.5.4.8.8,1.3,1.4.5.7.6,1.9.5,4.4,0,.5,0,1.2.3,2.7v2.1l-.2,1.9v2.3l-.3,2.1c0,1.4.2,2.5.2,4s0,1.3-.2,2.2v1c0,1.7.5,2.8,1.6,4.1,0,.2.6.4,1.5,1.3.4.4.8.8.9,1.3.3.8.5,1.4.6,2v2.1c0,.9-.3,1.5-.7,2.1-.4.7-.8,1-1.4,1.4s-1.8.6-4.1.8h-7.8c-.8,0-1.6,0-2.2-.2-2.3-.4-2.8-1.5-3.3-2-.4-.6-.6-1.2-.6-2.1s0-1.7.3-2.6c.2-.9.3-1.4.6-2,0-.2.3-.3.5-.6,1.1-1.1,2.1-1.6,3.2-2.6.4-.4.6-1.4.5-3.1v-3.1c0-1.5.2-2.5,0-3.8v-.3c0-1.4,0-2.6-.3-4-.3-1.7-1-2.7-2.4-3.3-1.4-.7-2.1-1.3-2.3-1.9h.3ZM487.2,48.5c-.8-.3-1.3-.7-1.8-1.2s-.8-1-1-1.7c-.3-.7-.4-1.5-.4-2.9s0-2.2.3-2.9c.2-.8.6-1.3,1.2-1.8.5-.5,1.1-.8,1.8-1.1.7-.3,1.6-.4,3.1-.4s2.4.2,3.1.5,1.1.6,1.5,1.1.8.9,1.1,1.8c.3.8.5,1.5.5,2.9s-.3,2.2-.6,3c-.3.8-.7,1.3-1.2,1.8s-1,.8-1.7.9-1.5.3-2.8.3-2.3,0-3-.3h-.1Z"/>
    <path d="M521.8,113c-1.5,0-2.5-.2-4-.3-.7,0-1.3-.2-2.1-.3h-1.6c-1.6-.3-2.7-.7-4.2-1.3l-1.8-.8c-1.3-.6-2.1-1.2-2.9-2.2l-1.2-1.7c-.7-1.2-1-1.8-1.2-2.4-.2-.7-.3-1.3-.5-2.8v-1.2c0-2.3.3-3.6.6-4.9.3-1.3.8-2.3,1.7-3.6.3-.6.8-1.1,1.2-1.5,1.1-1,2.1-1.3,3.3-2.3.2-.2.4-.3.6-.5.7-.7,1.1-1.3,1.3-2.1.3-1.4,0-2.5-.5-3.9-.2-.4-.8-1.1-1.9-2.1l-1.7-1.3c-1.2-1.3-1.7-2-2-2.7s-.7-1.4-1-2.8l-.3-2.3v-1.3c0-2.2,0-3.4.2-4.8.3-1.6.6-2.6,1.3-3.8.7-1.4,1.1-2.3,1.5-2.7.3-.4,1-.9,2.3-1.8,1.3-.7,2.3-1,3.6-1.3l1.8-.3,4.3-.4h4.4l2.1-.2,2.4.2c1.6,0,2.8-.3,4.2-1.2l.4-.3,2.3-1.3c1.3-.6,2.2-.7,2.8-.4.7.3,1.3.7,2.3,1.7s1.5,1.6,1.6,2.4c0,.8,0,1.3-.3,1.9-.3.7-1.1,1.5-2.7,3.1s-.3,1.1-.2,2.8l.2,1.8v1.7l.3,3.9-.2,2-.4,1.8c-.6,1.4-.9,2.2-1.3,2.8-.3.6-.8,1.2-1.7,2-1.1.9-2.1,1.4-3.6,2l-1.7.4c-1.4.4-2.4.6-4.1.8h-1.9c-.8.3-1.3.5-1.8.8-.8.8-.7,1.4-.3,2,.9,1.3,2.3,1.2,3.8,1.2h4.2l2.3.4,1.9.4c1.4.2,2.4.4,3.6.8,1.6.7,2.3.9,2.9,1.3s1.1.8,1.6,1.4l.7.8,1,1.7c.3.5.4,1,.5,1.5.4,1.5.5,2.5.7,3.9v2c0,1.6-.2,2.5-.5,3.8-.3,1.4-.6,2.3-1.3,3.6-.8,1.1-1.3,1.8-1.9,2.2-.7.4-1.4.8-2.8,1.3l-1.9.6c-1.3.5-2.4.8-3.9,1-1.6.2-2.8.3-4.3.2l-4.2.3h-1.9v.3ZM524.5,75.1c.7-.2,1.2-.3,1.7-.6.6-.3,1-.6,1.4-.9,1.1-1.2,1.3-2.5,1.3-4.1s0-1.3-.3-1.9c-.2-.6-.4-1-.7-1.3-.8-1.3-2-1.8-3.4-2.4h0c-1.3-.3-2.3-.4-3.8-.3h0c-1.4,0-2.5.3-3.9.7-.2,0-.7.5-1.8,1.5h0c-.7,1.2-.9,2.6-1,4.2,0,.9.2,1.8.8,3.2.2.6.8,1,2.3,1.6h0c1.4.5,2.6.8,4.1.8h1.9c.7,0,1.3-.2,1.8-.3l-.4-.2ZM525.6,103.3c1.5,0,2.6,0,4-.4.3,0,.8-.3,2.2-1,0,0,.6-.6,1.5-1.8,0,0,.2-.8.2-2.4s0-.5,0-.8c0-.6-.3-1.1-.6-1.6-.8-1.4-2-1.8-3.4-2.1l-2.1-.4c-1.3-.3-2.3-.4-3.8-.3h-1.9l-1.9.4c-1.3.2-2.3.4-3.7,1,0,0-.3.3-.8.8-1.1,1.3-1.3,2.6-1.1,4.2,0,.6.2,1,.3,1.4.6,1.4,1.9,1.8,3.3,2.3,1.2.4,2.3.6,3.8.5h0l4,.2h.2-.2Z"/>
    <path d="M548.3,85.3c.3-.7.8-1.5,2.1-3.3.4-.5.8-1.3,1.1-2.8.2-.7.2-1.5,0-2.8v-9.2c0-.4-.7-1.1-2-2.2l-.3-.3c-1.3-.9-2-1.5-2.3-2.2s-.5-1.5-.4-3c0-1.8.3-2.8.6-3.4.3-.6.8-1,1.4-1.3s1.8-.3,4-.5h3.5c1.4,0,2.5.3,3.3.6,1.4.6,2.3,1.3,3.8,1.9.4.2.9,0,1.8-.7.3-.3.8-.6,1.1-.8.7-.4,1.4-.7,2.8-1l2-.3h4.1c1.6,0,2.7,0,4.1.7,1.2.4,1.8.6,2.3,1l.8.6,2.8,2.8c1,1.2,1.6,2.1,2.3,3.3.5,1.3.8,2.3.8,3.6l.3,2,.2,3.9v4.1c0,1.5,0,2.5.2,4,0,.7.3,1.4,1,2.8.5,1.1,1.3,1.8,2.3,3,.6.9.9,1.8.9,3-.2,1.8-.4,2.8-.8,3.3-.3.6-.8.9-1.3,1.3-.6.4-1.8.6-4.1.8h-.6l-2,.3h-4.6c-2.3-.2-3.5-.4-4.3-.8-.8-.3-1.3-.8-1.6-1.5-.2-.7-.4-1.6-.5-3.5,0-1.8.6-3,1.8-4.7l.4-.6c.9-1.3,1.4-2.3,1.8-3.7.3-1.2.5-2.2.5-3.7v-2.3c-.2-1.6-.3-2.5-.8-4-.2-.5-.5-1.2-1.2-2.4h0c-.9-1.5-1.9-2.3-3.6-2.8h-.5c-1.5-.4-2.7-.6-4.2-.3-.3,0-.8.3-2.2,1.1-1.3.8-1.9,1.8-2.3,3.4-.3,1.3-.3,2.3-.3,3.5v8.7c0,.3.6.9,1.9,2l.4.4c1.1,1,1.7,1.4,2,2,.3.5.5,1,.7,2.1s.3,1.7,0,2.7c-.2.9-.3,1.6-.7,2.1-.3.6-.7.8-1.3,1.3s-1.5.6-2.9.8c-.7,0-1.3,0-1.9.2h-4c-.7,0-1.3,0-2.2-.2h-.5c-2.4,0-3.6-.2-4.2-.6-.7-.4-1-.8-1.3-1.5-.3-.8-.5-1.3-.7-2.2-.2-.9-.2-1.5-.2-2.4s.3-1.4.5-2.1l.2-.2Z"/>
    <path d="M617.3,43.9c-.3-.8-.3-1.8-.2-3.1s.5-2.1.9-2.7c.4-.7.8-1,1.3-1.4s1.7-.7,4.1-.8h.8c1.4-.3,2.7-.3,4.2-.2,1.5.2,2.3.3,3.1.8.7.3,1.1.7,1.3,1.3.2.7.4,1.7.5,4v1c.2,1.4.3,2.3.2,3.6-.2,1.4-.2,2.4,0,3.8v1.9h0v4.1h0v15.6h0v7.2c.2,1.6.7,2.7,1.5,4,0,.2.6.5,1.5,1.8.6.7.9,1.3,1.1,2,.3,1.2.5,2.1.3,3s-.3,1.5-.6,2.1c-.2.7-.6,1-1.3,1.3-.7.4-1.8.6-4.2.8h-2.4l-1.9-.2h-4.2c-.8,0-1.4-.2-2-.2-2.3-.3-2.8-1.3-3.3-1.9-.4-.4-.6-1.2-.6-2.1s0-1.8.2-2.6c.2-.9.3-1.3.6-2,.2-.3.3-.7.8-1.1,1.2-1.2,2-1.9,2.7-3.4,0,0,.2-.8.3-2.3v-.3l.3-2.2h0v-6.2l.2-2v-6.2l.2-2v-2.3l-.2-1.9-.2-2.2v-2l-.3-1.7c-.3-1.8-.9-2.8-2.2-3.5s-2.1-1.2-2.4-2v.2Z"/>
    <path d="M642,62.4c-.2-.7-.3-1.4-.2-3v-.7c.3-2.2,1.3-2.9,1.8-3.5s1.8-.8,4.2-1h.8l2.1-.2h.7c2.4.3,3.6.3,4.1.8.5.4.8.8,1.3,1.4s.6,1.9.5,4.4c0,.5,0,1.2.2,2.7v2.1l-.2,1.9v2.3l-.3,2.1c0,1.4.2,2.5.2,4s0,1.3-.2,2.2v1c0,1.7.5,2.8,1.6,4.1,0,.2.6.4,1.5,1.3.4.4.8.8.9,1.3.3.8.5,1.4.6,2v2.1c0,.9-.3,1.5-.7,2.1-.4.7-.8,1-1.4,1.4s-1.8.6-4.1.8h-7.8c-.8,0-1.6,0-2.2-.2-2.3-.4-2.8-1.5-3.3-2-.4-.6-.6-1.2-.6-2.1s0-1.7.2-2.6.3-1.4.6-2c0-.2.3-.3.5-.6,1.1-1.1,2.1-1.6,3.2-2.6.4-.4.6-1.4.5-3.1v-3.1c0-1.5.2-2.5,0-3.8v-.3c0-1.4,0-2.6-.3-4-.3-1.7-1-2.7-2.4-3.3-1.4-.7-2.1-1.3-2.3-1.9h.5ZM648.1,48.5c-.8-.3-1.3-.7-1.8-1.2s-.8-1-1-1.7c-.3-.7-.4-1.5-.4-2.9s0-2.2.3-2.9c.3-.8.6-1.3,1.2-1.8.5-.5,1.1-.8,1.8-1.1s1.6-.4,3.1-.4,2.4.2,3.1.5c.7.3,1.1.6,1.5,1.1s.8.9,1.1,1.8c.3.8.5,1.5.5,2.9s-.3,2.2-.6,3-.7,1.3-1.2,1.8-1,.8-1.7.9-1.5.3-2.8.3-2.3,0-3-.3h0Z"/>
    <path d="M668.2,93.2c-.7-.3-1.1-.6-1.4-1.2-.3-.6-.6-1.2-.7-2.3,0-1.1,0-2,.2-3.3,0-.7.4-1.3,1-1.8s.8-.8,1.3-1.2c1.2-1.2,1.5-2.2,1.7-3.8l.2-1.9c0-1.4,0-2.6.2-4.3v-5.7c0-1.8-.6-3-2.1-4-.3-.2-1.1-.3-2.1-1.3-.7-.7-.9-1.6-1-2.8,0-2.5.8-4.1,2.5-5.1l.7-.5c1.3-1.1,1.9-2.3,2-4v-1c0-2.3,0-3.6.4-4.8l.3-1c.8-2.2,1.2-3.2,1.6-3.8.3-.6.9-1.1,2-1.8l1.9-1c.6-.3,1.1-.6,1.7-.8,1.4-.4,2.5-.5,4-.7h2.9c2.2.2,3.5.8,5.1,1.4,1.2.7,1.8,1,2.3,1.6.5.5.9,1.3,1.6,2.8.5,1.3.8,2.3.9,3.8.2,1.4,0,2.5-.8,3.6-.8,1-1.8,1.4-3.1,1.3-.6,0-1.2-.2-1.7-.4-1.3-.8-1.7-1.8-2.6-2.9-.8-.9-1.9-1.3-3.7-1-.2,0-.4,0-.6.3-1.3.8-1.4,2.2-1.8,3.6,0,.3,0,.9.3,2.4.3,1.3,1.3,2.1,3.1,2.5.4,0,1.1,0,2.6.3,1,0,1.7.3,2.1.6.8.6,1.2,1,1.3,1.6.2.7.3,1.3.2,2.7s-.3,1.9-.6,2.3l-.5.6c-.9.9-2.2,1.4-4.3,1.9h-.5c-.4.2-.8.2-1.2.3-1.7.4-2.2,1.9-2.3,3.6v1.7l-.3,1.8v7.4c0,1.8.5,2.9,1.9,4.1l.4.3c1,.9,1.5,1.4,1.8,2s.6,1.1.7,2.1c0,1.1.2,1.7.2,2.6s-.3,1.4-.7,2c-.4.7-.8,1-1.3,1.4s-1.8.7-4.2.8h-7.3l-2-.2c-1.4,0-2.3-.3-2.9-.6l.6-.2Z"/>
    <path d="M706.6,75.6c-1.7.7-1.9,2.3-1.8,4v.8c.2.7.5,1.3.8,1.7,1,1.2,2.1,1.5,3.4,2,1.3.3,2.4.4,3.8.5h3.9c1.4,0,2.4-.2,3.9-.5,0,0,.7-.3,2-1.3l1.9-1.3c1.3-.7,2.5-.9,4-.9s2.3.3,2.7.7c.4.5.8.9.9,1.7.2.8.2,1.5-.2,2.8l-.5,1.8c-.6,1.3-1,2-1.4,2.6-.4.7-.8,1-1.4,1.5-.6.5-1.3.8-2.4,1.4l-1.9.8c-1.4.5-2.4.8-3.8.9-1.4.3-2.6.4-4.2.4l-3.8.2-2-.2h-2.1l-2-.4c-1.3-.2-2.3-.5-3.8-1.1-1.3-.4-2.3-.8-3.3-1.7-1-1-1.7-1.9-2.5-3.3l-.8-1.4c-.8-1.6-1.1-2.5-1.3-3.8l-.4-2.3-.3-2v-3.9l-.2-3.8.3-2.2.2-2.1.3-1.8c.3-1.4.6-2.3,1.3-3.8.5-1.4.9-2.2,1.3-2.7.3-.5.7-.8,1.2-1.4.5-.5,1.4-1.2,3.5-2.2l.3-.2c1.4-.7,2.4-1,3.8-1.3l2.3-.3,3.7-.2h4.3c1.3-.2,2.3,0,3.8.3,1.5.2,2.6.3,4.1.9l2,.7c1.3.7,2.1,1.2,3,2.1,1.2,1.1,1.8,1.9,2.4,3.1l.8,1.7c.4,1.4.7,2.4.8,4.2.3,1.3.4,2.2.3,3.6,0,1.4-.2,2.1-.3,2.8-.3.7-.5,1.2-.8,1.6-.4.4-1.1.8-2.4.8-1.4.2-2.5,0-4.2,0h-10.1c-1.6.2-2.7.2-3.9,0h-4c-.4,0-.8.2-1.2.3v.2ZM706.2,67.4c-.5,1.8,1.5,2.3,3.2,2.4h1.2l4,.3,1.8-.2h4.5c2-.3,2.3-2.2,1.8-4.1,0-.3-.6-.7-1.7-1h-.3c-1.4-.5-2.4-.8-3.9-.8h-3.6l-1.8.3c-.5,0-.9.3-1.3.3-1.6.4-2.5,1.1-3.3,2.2-.3.3-.3.6-.4.8l-.2-.2Z"/>
  </g>
  <g>
    <path d="M78.4,99.7c1.1-.8,1.9-1.9,1.9-3.1,0-2.4-2.7-4.4-6.1-4.4s-6.1,2-6.1,4.4.7,2.4,1.8,3.2c-2.7,3.9-3.3,3.5-6.6,7-1.1,1.2-1,3.1.2,4.2s3.1,1.1,4.2,0c3.2-3.4,1.7-6.9,6.4-6.9s3.2,3.4,6.4,6.8c.6.6,1.4,1,2.2,1s1.5-.3,2.1-.8c1.2-1.1,1.2-3.1,0-4.3-3.6-3.2-3.8-3.1-6.6-7h0Z"/>
    <path d="M58.9,93c3,0,5.5-1.2,7.5-3.1s3.5-4.3,3.8-7.3c.2-2.8,0-4,1.5-5.8s2.8-1.3,4-.2c2.3,2,1.7,3,2,6s1.8,5.7,3.8,7.6,4.9,2.9,7.8,2.9h7c3.5,0,3.5,0,6.9,0s3.5,0,6.9,0,5.3-1.3,7.3-3.1c2-1.7,3.3-4.1,3.7-6.9.5-3.2.8-3.2,1.3-6.4s-.8-3.7.8-6.3,1-.8,1.6-.6c3.6,1,7-1.4,7-4.8s-2.4-5.4-5.3-5.4c-3,.3-3,.6-5.9-.2-2.2-2.3-5.2-3.2-8.4-3.2s-4-.3-8.1-.3h-16.2c-3.2,0-6.1,1.5-8.3,3.9-1.5,1.6-2.5,3.6-2.9,5.8-.4,2.2-.5,1.1-1,1.3-1.5.6-2.3.6-3.8,0s-.9-.7-1-1.3c-.4-2.2-1.3-4.3-2.8-5.9-2.2-2.3-5.2-3.6-8.4-3.6s-4,0-8.1,0-4,.2-8.1.2-4,0-8.1,0-6.1,1.4-8.3,3.8c-2.8.8-3,0-5.8,0s-5.5,2.3-5.5,5.2,3.4,5.9,7.1,4.8,1.3,0,1.6.6c1.6,2.6.4,3.2.9,6.4s0,3.3.6,6.5c.4,2.8,2.2,5.1,4.1,6.8s4.5,2.6,7.3,2.6,3.5.3,6.9.3,3.5,0,6.9,0h7.7ZM95.6,64.7c1.1,1,1,2.8,0,3.9-2.3,2.2-2.6,2.2-5.2,4.8s-1,.6-1.6.6-1.1-.2-1.6-.6c-1-1-.9-2.6,0-3.6,2.5-2.5,2.6-2.5,5.2-5.2s2.2-.7,3.1.2h0ZM43.2,64.7c1.1,1,1,2.8,0,3.9-2.3,2.2-2.6,2.2-5.2,4.8-.5.5-1,.6-1.6.6s-1.1-.2-1.6-.6c-1-1-.9-2.6,0-3.6,2.5-2.5,2.6-2.5,5.2-5.2.9-.9,2.2-.7,3.1.2h0Z"/>
    <path d="M148.1,26.1c0-2.8-.3-5.6-1.1-8.1s-2.6-4.8-4.2-6.9-3.3-4.3-5.5-5.9-4.7-2.7-7.3-3.5S124.8,0,122.1,0s-5.4.6-7.9,1.4c-2.6.8-5.1,1.8-7.3,3.3s-3.6,3.9-5.2,6-3.2,4.2-4.1,6.8c-.9,2.6-1,4.5-1.1,6.9s-.6,1.1-1.3,1c-2.1-.3-4.3-.7-6.4-.9s-4.9-.5-7.4-.6c-2.4-.1-4.9.1-7.4.1s-5-.3-7.4-.2-5,.5-7.4.8-4.1.3-6.1.5-1.2-.4-1.2-1c-.2-2.3-.6-4.5-1.4-6.6s-1.1-2.6-1.8-3.9c-1.6-2.7-5-6.3-7.5-8.1s-4.7-3-7.4-3.9-5.1-1.1-7.8-1.1-5.5.1-8,.9-5.2,1.9-7.3,3.5-4,3.7-5.6,5.9-3.1,4.5-3.9,7.1-1.2,5.4-1.2,8.2.4,5.4,1.2,7.9c.8,2.5,2,5,3.5,7.1,1.5,2.1,2.8,3.4,4.6,4.9s.5,1,.2,1.5c-1.5,2-2.6,4.2-3.8,6.5s-2.4,5.2-3.2,8c-.8,2.8-1.3,5.5-1.7,8.5s-.9,5.6-.9,8.6.5,5.7.9,8.4,1.1,5.6,1.9,8.2c.8,2.6,1.9,5.3,3.1,7.7s2.6,4.9,4.3,7.1,3.4,4.5,5.6,6.3,4.5,3.2,7,4.7,5,3,7.8,4.1c2.8,1.1,5.5,1.6,8.5,2.4,3,.8,5.6,1.4,8.6,1.9s5.7,1.3,8.7,1.6,5.8.5,8.8.6,5.8-.2,8.9-.2,6,0,8.8-.1c3.1-.1,6-.2,8.8-.5s6-.6,8.8-1.1c3-.5,5.9-1.1,8.7-1.8s5.7-2,8.3-3.1,5.5-2.5,7.9-3.9c2.5-1.5,4.8-3.1,6.9-4.8s4.4-3.6,6.1-5.8,2.7-4.9,3.9-7.5,2.8-4.8,3.6-7.6,1.1-5.4,1.5-8.3.2-5.5.2-8.4,0-5.9-.3-8.6-.7-5.9-1.5-8.6-2.3-5.4-3.5-7.9-2.4-4.5-3.9-6.5-.3-1.1.2-1.5c1.7-1.5,3.2-3.2,4.5-5.1s2.5-4.6,3.3-7.1,1.5-5,1.5-7.7h.3ZM140,79.1c0,2.9-.3,5.6-.7,8.2s-.5,5.7-1.4,8.2c-.9,2.7-2.4,5.1-3.8,7.4s-3.1,4.6-5.1,6.5-4.3,3.2-6.8,4.7-4.6,2.8-7.3,3.9-5.1,1.6-7.9,2.3-5.1,1.9-7.9,2.4-5.4.4-8.3.7-5.4.9-8.2,1-5.4,0-8.3,0-5.6,0-8.3-.2-5.6,0-8.3-.3-5.6-1-8.2-1.4c-2.9-.5-5.6-.8-8.1-1.5s-5.3-1.9-7.8-2.9-5.1-2.3-7.4-3.7-4.7-3.1-6.6-4.9-4-4-5.4-6.3-2.6-4.9-3.5-7.5-1.6-5.2-2-8.1-.2-5.4-.2-8.3.4-5.6.8-8.3.8-5.6,1.7-8.1,2.8-6,4.5-8.8,2.7-3.5,4.2-5.1,1.4-2.5,1.2-3.7-1.2-2.5-2.4-3.1c-3.1-1.5-5.5-3.7-7.2-6.5s-2.8-5.9-2.8-9.3.9-6.3,2.4-8.9,3.8-5,6.5-6.6c2.7-1.6,5.7-2,8.9-2s6.3.5,8.9,2c2.7,1.6,5.2,3.7,6.7,6.4,1.5,2.7,2.5,5.8,2.5,9s-.3,2.3-.5,3.4c-.2,1.3,0,2.8.8,3.7,1,.9,2.4,1.1,3.7.8,2.7-.6,5.6-.8,8.5-1.1s5.6-1,8.6-1.2c3-.2,5.7-.2,8.6-.2s5.8.5,8.6.6,5.8.4,8.6.7c3,.4,5.9.5,8.7,1.1s2.6,0,3.4-1,1.4-2.1,1.1-3.4c-.2-1.1-.2-2.3-.2-3.4,0-4.1,1.5-7.8,3.8-10.9s3.3-3.8,5.5-5,5.4-2.1,8.4-2.1,6,.8,8.5,2.2c2.6,1.4,4.7,3.6,6.2,6.2s3.6,6,3.6,9.7-1.5,6.5-3.2,9.3-3.8,4.9-6.6,6.4-2.2,1.9-2.4,3.3,0,2.4.8,3.3c1.5,1.7,2.9,3.3,4,5.3,1.6,2.9,3.6,5.7,4.7,9,.9,2.5,1.4,5.3,1.8,8.1s.5,5.4.5,8.3v-.2Z"/>
  </g>
  <g>
    <path d="M178.6,103.9c0-.2-.1-.5,0-.8,0-.4.2-.7.5-1,.3-.3.7-.4,1.4-.6h.2c.6,0,1,0,1.4,0s.7.1.9.2c.2.1.3.2.4.4,0,.2.1.5.1,1.3v.8c0,0,0,.6,0,.6,0,.4,0,.8,0,1.2,0,.1,0,.3,0,.4.2.5.6.6,1.1.7.3,0,.6,0,1.1,0,.2,0,.4,0,.7,0,.4,0,.7,0,1.2.1.5.1.8.3,1.2.4.4.2.7.4,1,.7.2.2.3.3.4.5.3.4.4.7.6,1.1,0,.2.1.4.2.6l.2.5v.7c.1,0,.2.6.2.6v.3c0,.7,0,1.1,0,1.6v.5s-.1.7-.1.7c-.1.4-.2.7-.4,1.2l-.3.6c-.2.4-.4.6-.7.9l-.5.4-.4.3c-.4.3-.7.4-1.1.5h-.6c0,.1-.9.2-.9.2-.7,0-1.1,0-1.5,0-.4,0-.7-.2-1.1-.3-.4-.2-.7-.2-1.2-.2s-.5,0-.9.2c-.2,0-.3.1-.4.2-.2,0-.5,0-1,0-.5,0-.8,0-.9-.2-.2,0-.3-.2-.4-.4-.1-.2-.2-.4-.2-.7,0-.3,0-.6,0-1.1.2-.5.5-.8,1.1-1.3,0,0,.2-.3.3-.8.1-.4.2-.7.2-1.1v-1.2s0-.6,0-.6v-.7s0-1.2,0-1.2v-.7s0-.6,0-.6v-.7c0-.4,0-.7,0-1.2h0c0-.5,0-.8-.1-1.3,0-.4-.3-.7-.7-1-.4-.3-.6-.4-.7-.6ZM183.5,115.6c0,.1.3.2.8.4.3.1.6.1,1,.1h0c.5,0,.8,0,1.3-.2-7,2.4-2,.7-.2,0,.2-.1.4-.2.6-.3.2-.1.3-.3.4-.4.3-.4.4-.8.4-1.2h0c0-.5.1-.9.1-1.3s0-.8-.1-1.2h0c0-.1-.1-.3-.2-.5-.1-.2-.2-.4-.3-.5-.3-.4-.7-.5-1.1-.6-.4-.1-.7-.2-1.2-.2h-.5c-.2,0-.4.1-.6.2-.3.1-.4.3-.5.5-.2.4-.2.7-.2,1.2v.9s0,.6,0,.6v.7s0,.6,0,.6c0,.5,0,.8.2,1.2Z"/>
    <path d="M196.3,113.7c-.5.2-.6.7-.6,1.2,0,0,0,.2,0,.2,0,.2.2.4.3.5.3.4.6.5,1,.6.4.1.7.1,1.2.2h1.2c.4,0,.7,0,1.2-.2,0,0,.2-.1.6-.4l.6-.4c.4-.2.8-.3,1.2-.3s.7,0,.8.2c.1.2.2.3.3.5,0,.3,0,.5,0,.9l-.2.5c-.2.4-.3.6-.4.8-.1.2-.3.3-.4.5-.2.2-.4.3-.7.4l-.6.2c-.4.2-.7.2-1.1.3-.4.1-.8.1-1.3.1h-1.1c0,0-.6,0-.6,0h-.6s-.6-.1-.6-.1c-.4,0-.7-.2-1.2-.3-.4-.1-.7-.3-1-.5-.3-.3-.5-.6-.8-1l-.3-.4c-.2-.5-.3-.8-.4-1.1v-.7c-.1,0-.2-.6-.2-.6v-1.2s0-1.1,0-1.1v-.7c0,0,.1-.6.1-.6v-.5c.2-.4.3-.7.5-1.1.2-.4.3-.7.4-.8,0-.2.2-.3.4-.4.2-.2.4-.4,1.1-.7h.1c.4-.3.7-.4,1.1-.4h.7c0,0,1.1-.1,1.1-.1h1.3c.4,0,.7,0,1.1,0,.5,0,.8.1,1.2.3l.6.2c.4.2.6.4.9.6.4.3.6.6.7.9l.2.5c.1.4.2.7.3,1.3.1.4.1.7.1,1.1,0,.4,0,.6-.1.8,0,.2-.2.4-.3.5-.1.1-.3.2-.7.3-.4,0-.8,0-1.3,0h-1.2s-.6,0-.6,0h-1.3c-.5,0-.8,0-1.2,0h-.6s-.6,0-.6,0c-.1,0-.3,0-.4,0ZM196.2,111.2c-.2.5.5.7,1,.7h.4s1.2,0,1.2,0h.6c0,0,.6,0,.6,0h.4c.1,0,.2,0,.3,0,.6,0,.7-.7.5-1.2,0-.1-.2-.2-.5-.3h-.1c-.4-.2-.7-.2-1.2-.3h-1.7c-.2.1-.3.2-.4.2-.5.1-.8.3-1,.7,0,0-.1.2-.1.3Z"/>
    <path d="M215.2,111.9c0,0-.1,0-.2-.1-.4-.4-.5-.6-.9-.9-.3-.3-.5-.4-.9-.4h-.6c0,0-1.3,0-1.3,0h0c-.2,0-.3,0-.5,0-.5,0-.8.1-1.2.3,0,0-.5.5-.6.9v.7c-.2.4-.2.7-.2,1.2v.7s.1.6.1.6c0,.2.1.3.2.4.2.4.5.6,1,.8.4.1.7.2,1.1.2h1.9c0,0,.5-.1.5-.1.5,0,.8-.2,1.2-.5l.4-.3c.4-.3.8-.4,1.2-.4.4,0,.6.2.7.3.1.2.2.3.2.4s0,.5-.2,1.2v.2c0,0-.3.6-.3.6-.2.4-.4.6-.6.8-.2.2-.3.3-.5.4-.2.1-.4.2-.9.4h-.3c-.7.3-1,.4-1.4.4h-.7c0,0-.3,0-.3,0-.4,0-.7,0-.9,0-.5,0-.8,0-1.2-.1s-.4,0-.7-.1h-.6c-.4-.2-.6-.3-.8-.4-.2-.1-.4-.2-.7-.5l-.4-.4c-.3-.3-.5-.6-.6-1s-.2-.4-.2-.6c-.1-.5-.1-.8-.2-1.2,0-.2,0-.4,0-.6v-.9c0-.7,0-1.1,0-1.5v-.6c0-.4,0-.8.2-1.2l.2-.6.2-.6c.1-.4.2-.7.4-.8.1-.2.3-.3.6-.6.3-.2.6-.4,1-.5.2-.1.4-.2.6-.2.4-.1.7-.1.8-.2.7-.1,1.1-.2,1.8-.1h.4c.4.1.7.2.9.3.2,0,.4.3.7.6.4.4.7.4.9,0,.2-.3.3-.4.4-.5.2,0,.5-.1,1-.1.5,0,.8,0,1.1.2.2.2.3.3.4.4s.1.5.2,1.2v.4c0,.5.1.8,0,1.3,0,.5-.1.7-.3.9-.1.2-.2.3-.4.4-.2.1-.3.2-.6.2-.3,0-.5,0-.7,0-.2,0-.4,0-.6-.2Z"/>
    <path d="M230.9,117.4c0,.3,0,.4,0,.7s-.1.5-.2.7-.2.3-.4.4c-.2.1-.4.2-.9.2-.5,0-.7,0-.9,0-.2,0-.4-.2-.9-.4-.3-.2-.7-.3-1.1-.3-.2,0-.4,0-.8.3-.4.2-.7.3-1.4.5h-.3c-.4.1-.8.1-1.5,0h-.3s-.3,0-.3,0c-.7-.1-1.1-.2-1.5-.4-.4-.3-.7-.5-1-.8-.2-.3-.4-.6-.6-1-.1-.5-.2-.9-.2-1.3s0-.6,0-.9c0-.2,0-.4.2-.6,0-.2.2-.4.4-.8.3-.4.4-.6.6-.7,0,0,.1-.1.2-.1.4-.3.7-.4,1.1-.6.2,0,.4-.1.6-.2.5-.1.7-.2.9-.2h.3c.5,0,.8,0,1.2,0h1c.1,0,.2,0,.3,0,.6,0,.8-.6.7-1.1,0,0,0,0,0-.1-.2-.4-.6-.6-.9-.8,0,0-.3,0-.7,0h-.6c-.5,0-.8.2-1.2.4l-.4.2c-.6.3-1,.5-1.5.5-.5,0-.7,0-.9-.1s-.3-.2-.4-.4c0-.2-.1-.4,0-.8,0-.4.2-.7.4-1l.3-.3.5-.4c.4-.2.7-.3,1.1-.4h.6c.5-.2.9-.3,1.6-.3h.8c.4,0,.7,0,1.2.1.4,0,.7.2,1.1.3h.2c.6.3.9.6,1,.7.2.2.3.3.4.5.2.2.3.4.4.8l.2.5.2.7c0,.4,0,.7,0,1.4,0,.2,0,.5,0,.9,0,0,0,0,0,.1,0,.5,0,.8,0,1.2v.6c0,.5.2.8.4,1.2,0,0,.2.2.5.3,0,0,.5.7.5,1ZM222.1,115.8c.1.3.2.4.4.5.4.2.7.2,1.2.3h0c.4,0,.8,0,1.2-.2.2,0,.4-.1.5-.2.2-.1.3-.2.4-.4.3-.5.2-.8,0-1.3,0,0,0,0,0-.1-.3-.4-.7-.4-1.2-.5-.4,0-.8,0-1.2,0h0c-.1,0-.3,0-.4,0-.2,0-.3.1-.5.2-.4.3-.5.7-.5,1.1,0,.2,0,.3.1.5Z"/>
    <path d="M244.1,109.9c-.3.4-.5.6-.7,1.1,0,.1-.1.3-.2.7,0,0,0,.3,0,.7h0v1.4s0,.7,0,.7v.2c0,.5.2.9.5,1.2.2.2.3.2.6.4.2.1.3.2.3.3,0,.2.1.5.1,1,0,.5,0,.7-.2.9-.1.2-.3.3-.4.4s-.5.2-1.3.2h-.2c-.4,0-.7,0-1.1,0-.4,0-.7-.2-1.1-.6-.4-.3-.7-.4-1,0-.2.2-.3.3-.4.4-.2.1-.5.2-1,.3-.5.1-.9.2-1.6.2h-.3c-.4,0-.6-.1-.8-.2-.2,0-.4-.2-.8-.4l-.6-.3c-.4-.2-.5-.3-.7-.5s-.3-.4-.5-.7l-.3-.5-.2-.6c-.1-.4-.2-.8-.2-1.4v-.9s0-.7,0-.7v-.6s0-.7,0-.7v-.2c-.1-.5-.2-.8-.4-1.2s-.3-.4-.5-.6-.2-.2-.2-.3c0-.2-.1-.5-.2-1.1,0-.5,0-.8.2-1,0-.2.2-.3.4-.4.2-.1.5-.2,1.2-.3h.3c0,0,.6,0,.6,0h.6s.6.1.6.1h.3c.7,0,1.1,0,1.2.2.2.1.3.2.4.4.1.2.2.4.2.7,0,.3,0,.5,0,.7s-.2.5-.4.9l-.3.4c-.3.4-.4.7-.6,1.1-.1.3-.2.6-.2,1v1c0,0,0,.2,0,.2,0,.5.2.8.3,1.2.2.4.4.6.8.9.3.2.6.3,1,.4.2,0,.4,0,.5,0,.5,0,.8-.1,1.2-.4.4-.2.6-.5.7-1,0-.4.1-.7.1-1.2v-.5c0,0,0-.6,0-.6v-.5c0,0,0-.3,0-.3,0-.5-.2-.9-.6-1.2l-.2-.2c-.3-.2-.4-.4-.5-.6-.1-.2-.2-.4-.2-.7s0-.5,0-.8c0-.3,0-.5.1-.7,0-.2.2-.3.4-.4.2,0,.6-.1,1.2-.2h.3c.2,0,.4,0,.5,0,.5,0,.8,0,1.2,0h.3c.7,0,1.1,0,1.3.2s.3.2.4.5v.3c.2.5.2.8.1,1.2,0,.2-.2.4-.3.7Z"/>
    <path d="M245.9,111.3v-.5c0-.4,0-.7,0-1.2h0c.1-.5.3-.8.6-1.1.3-.3.5-.6.8-.8h0c.4-.2.7-.4,1-.5l.6-.2c.4-.1.8-.1,1.2-.1h.6c.4,0,.6,0,.6,0,.5.1.8.2,1.2.4,0,0,0,0,0,0,.4.3.6.7,1,.5,0,0,0,0,0,0,.4-.3.6-.6,1.1-.6h.5c0,0,.7,0,.7,0h.4c.5.1.9.3,1.1.8,0,.1,0,.2,0,.4v.4c0,0,0,.6,0,.6h0c0,.5,0,.7,0,1,0,.5-.3.9-.8,1.1,0,0-.2,0-.3,0h-.4c-.4,0-.7,0-1.1,0-.5-.1-.7-.2-.8-.3-.5-.5-.8-.7-1-.8-.1,0-.2,0-.4,0-.3,0-.5,0-.7,0-.7,0-1.1,0-1.6,0-.5,0-.7,0-.9.2-.2.2-.3.4-.2.8,0,.4.1.6.3.7.1,0,.3.1.4.1.3,0,.6,0,1,0h1.2c.2,0,.4,0,.6,0,.5,0,.8,0,1.2,0h0c.4,0,1.1.1,1.2.1.5,0,.8,0,1.2.3.1,0,.3.2.4.3.3.3.4.4.4.4.3.4.4.5.4.5.1.5.2.7.2,1.1v.7c0,.5,0,.8-.1,1.2,0,.2-.1.3-.2.5,0,.2-.2.3-.3.5-.3.4-.5.6-.9.8-.2.1-.4.2-.5.3,0,0,0,0,0,0-.4.2-.7.3-1.1.4h-.7c0,.1-.6.2-.6.2h-.5c-.4,0-.8,0-1.2-.2h0c-.4,0-.7-.1-1.1-.4-.5-.3-.9-.4-1.2-.3-.5.1-.7.4-1.2.5h-.6c0,0-.5,0-.5,0-.5,0-1-.2-1.1-.7,0-.1,0-.2,0-.3,0-.4-.1-.8,0-1.2,0-.2,0-.4,0-.6v-.3c0-.5.2-.9.6-1.1.2,0,.3,0,.5,0h.4s0,0,0,0c.5,0,.8,0,1.2,0,.5.1.7.2.9.4.6.5,1,.6,1.5.7h1.2c.5,0,.9,0,1.3,0,.4-.1.6-.2.7-.3s.2-.3.1-.7c0-.4-.2-.6-.4-.7-.3,0-.5-.1-1-.2h-1.3c0-.1-.6-.2-.6-.2h-1.8c-.5,0-1.2,0-1.2,0-.5,0-.8,0-1.2-.3-.1,0-.2-.2-.4-.3-.3-.2-.5-.5-.7-.9,0-.2-.1-.3-.2-.5,0-.2,0-.4,0-.6h0Z"/>
    <path d="M263.3,113.7c-.5.2-.6.7-.6,1.2,0,0,0,.2,0,.2,0,.2.2.4.3.5.3.4.6.5,1,.6.4.1.7.1,1.2.2h1.2c.4,0,.7,0,1.2-.2,0,0,.2-.1.6-.4l.6-.4c.4-.2.8-.3,1.2-.3s.7,0,.8.2c.1.2.2.3.3.5,0,.3,0,.5,0,.9l-.2.5c-.2.4-.3.6-.4.8-.1.2-.3.3-.4.5-.2.2-.4.3-.7.4l-.6.2c-.4.2-.7.2-1.1.3-.4.1-.8.1-1.3.1h-1.1c0,0-.6,0-.6,0h-.6s-.6-.1-.6-.1c-.4,0-.7-.2-1.2-.3-.4-.1-.7-.3-1-.5-.3-.3-.5-.6-.8-1l-.3-.4c-.2-.5-.3-.8-.4-1.1v-.7c-.1,0-.2-.6-.2-.6v-1.2s0-1.1,0-1.1v-.7c0,0,.1-.6.1-.6v-.5c.2-.4.3-.7.5-1.1.2-.4.3-.7.4-.8,0-.2.2-.3.4-.4.2-.2.4-.4,1.1-.7h.1c.4-.3.7-.4,1.1-.4h.7c0,0,1.1-.1,1.1-.1h1.3c.4,0,.7,0,1.1,0,.5,0,.8.1,1.2.3l.6.2c.4.2.6.4.9.6.4.3.6.6.7.9l.2.5c.1.4.2.7.3,1.3.1.4.1.7.1,1.1,0,.4,0,.6-.1.8,0,.2-.2.4-.3.5-.1.1-.3.2-.7.3-.4,0-.8,0-1.3,0h-1.2s-.6,0-.6,0h-1.3c-.5,0-.8,0-1.2,0h-.6s-.6,0-.6,0c-.1,0-.3,0-.4,0ZM263.2,111.2c-.2.5.5.7,1,.7h.4s1.2,0,1.2,0h.6c0,0,.6,0,.6,0h.4c.1,0,.2,0,.3,0,.6,0,.7-.7.5-1.2,0-.1-.2-.2-.5-.3h-.1c-.4-.2-.7-.2-1.2-.3h-1.7c-.2.1-.3.2-.4.2-.5.1-.8.3-1,.7,0,0-.1.2-.1.3Z"/>
    <path d="M278.8,104c-.1-.3-.1-.5,0-.9s.2-.6.3-.8c.1-.2.3-.3.4-.4.2-.1.5-.2,1.2-.3h.2c.4,0,.8-.1,1.3,0s.7.1.9.2c.2.1.3.2.4.4,0,.2.1.5.2,1.2v.3c0,.4,0,.7,0,1.1,0,.4,0,.7,0,1.2,0,.2,0,.4,0,.6h0c0,.5,0,.8,0,1.2h0s0,.6,0,.6c0,.5,0,.8,0,1.2s0,.4,0,.6v1.1c0,.5,0,.8,0,1.2h0c0,.5,0,.8,0,1.2v.9c0,.5.2.8.5,1.2,0,0,.2.2.5.5.2.2.3.4.3.6.1.4.2.6.1.9s-.1.5-.2.6c0,.2-.2.3-.4.4-.2.1-.6.2-1.3.3h-.2s-.6,0-.6,0h-.6c0,0-.6,0-.6,0h-.6c-.2,0-.4,0-.6,0-.7-.1-.9-.4-1-.6-.1-.1-.2-.4-.2-.6,0-.3,0-.5,0-.8,0-.3.1-.4.2-.6,0-.1.1-.2.3-.3.4-.4.6-.6.8-1,0,0,0-.2.1-.7h0c0-.1.1-.8.1-.8h0c0-.5,0-.8,0-1.2,0-.2,0-.4,0-.6v-.6c0-.4,0-.8,0-1.2,0-.2,0-.4,0-.7v-.6c0,0,0-.7,0-.7v-.6s0-.7,0-.7v-.6s-.1-.5-.1-.5c0-.6-.3-.9-.7-1.1-.4-.2-.6-.4-.7-.6Z"/>
    <path d="M286.3,109.7c0-.2,0-.4,0-.9,0,0,0-.2,0-.2,0-.7.4-.9.6-1.1.2-.2.5-.2,1.3-.3h.3s.6,0,.6,0h.2c.7,0,1.1.1,1.2.2s.3.2.4.4c.2.2.2.6.2,1.3,0,.2,0,.4,0,.8v1.2c0,0,0,.7,0,.7v.6c0,.4,0,.8,0,1.2s0,.4,0,.7v.3c0,.5.2.9.5,1.2,0,0,.2.1.5.4.1.1.2.3.3.4.1.3.2.4.2.6,0,.2,0,.4,0,.6s0,.5-.2.6c-.1.2-.2.3-.4.4-.2.1-.5.2-1.2.3-.1,0-.4,0-1.1,0h-.5s-.7,0-.7,0h-.2c-.3,0-.5,0-.7,0-.7-.1-.9-.5-1-.6-.1-.2-.2-.4-.2-.6,0-.3,0-.5,0-.8s.1-.4.2-.6c0,0,0-.1.2-.2.3-.3.6-.5,1-.8.1-.1.2-.4.2-.9v-.3c0-.3,0-.5,0-.7,0-.5,0-.8,0-1.2h0c0-.5,0-.9-.1-1.3,0-.5-.3-.8-.7-1-.4-.2-.6-.4-.7-.6ZM288.2,105.4c-.2-.1-.4-.2-.5-.4-.2-.2-.2-.3-.3-.5-.1-.2-.1-.5-.1-.9,0-.4,0-.7,0-.9,0-.3.2-.4.4-.6.2-.2.3-.2.5-.3.2,0,.5-.1.9-.1.5,0,.7,0,.9.2.2,0,.3.2.5.3.1.2.2.3.3.5.1.2.2.5.2.9,0,.4,0,.7-.2.9s-.2.4-.4.6c-.2.2-.3.2-.5.3-.2,0-.5,0-.9.1-.4,0-.7,0-.9-.1Z"/>
    <path d="M294.3,119c-.2,0-.3-.2-.4-.4-.1-.2-.2-.4-.2-.7s0-.6,0-1c0-.2.1-.4.3-.6.2-.2.3-.3.4-.4.4-.4.5-.7.5-1.2v-.6c0-.4,0-.8.1-1.3v-.7s0-.6,0-.6v-.5c0-.5-.2-.9-.6-1.2,0,0-.3,0-.6-.4-.2-.2-.3-.5-.3-.9,0-.8.3-1.2.8-1.5l.2-.2c.4-.3.6-.7.6-1.2v-.3s0,0,0,0c0-.7,0-1.1.1-1.5v-.3c.3-.7.5-1,.6-1.1.1-.2.3-.3.6-.5l.6-.3c.2-.1.3-.2.5-.2.4-.1.8-.2,1.2-.2.2,0,.4,0,.6,0h.3c.7,0,1.1.2,1.5.4.4.2.6.3.7.5.2.2.3.4.5.8.2.4.2.7.3,1.1,0,.4,0,.8-.2,1.1-.3.3-.5.4-.9.4-.2,0-.4,0-.5-.1-.4-.2-.5-.5-.8-.9-.2-.3-.6-.4-1.1-.3,0,0-.1,0-.2,0-.4.3-.4.7-.5,1.1,0,0,0,.3.1.7,0,.4.4.6.9.8.1,0,.3,0,.8,0,.3,0,.5,0,.6.2.2.2.4.3.4.5,0,.2,0,.4,0,.8,0,.4,0,.6-.2.7l-.2.2c-.3.3-.7.4-1.3.6h-.2c-.1,0-.3,0-.4,0-.5.1-.7.6-.7,1.1v.5s0,.6,0,.6c0,.4,0,.8,0,1.2v1c0,.5.2.9.6,1.2h.1c.3.4.5.5.6.7.1.2.2.3.2.6,0,.3,0,.5,0,.8,0,.3,0,.4-.2.6-.1.2-.3.3-.4.4s-.5.2-1.3.2h-2.2s-.6,0-.6,0c-.4,0-.7,0-.9-.2Z"/>
    <path d="M305.9,113.7c-.5.2-.6.7-.6,1.2,0,0,0,.2,0,.2,0,.2.2.4.3.5.3.4.6.5,1,.6.4.1.7.1,1.2.2h1.2c.4,0,.7,0,1.2-.2,0,0,.2-.1.6-.4l.6-.4c.4-.2.8-.3,1.2-.3s.7,0,.8.2c.1.2.2.3.3.5,0,.3,0,.5,0,.9l-.2.5c-.2.4-.3.6-.4.8-.1.2-.3.3-.4.5-.2.2-.4.3-.7.4l-.6.2c-.4.2-.7.2-1.1.3-.4.1-.8.1-1.3.1h-1.1c0,0-.6,0-.6,0h-.6s-.6-.1-.6-.1c-.4,0-.7-.2-1.2-.3-.4-.1-.7-.3-1-.5-.3-.3-.5-.6-.8-1l-.3-.4c-.2-.5-.3-.8-.4-1.1v-.7c-.1,0-.2-.6-.2-.6v-1.2s0-1.1,0-1.1v-.7c0,0,.1-.6.1-.6v-.5c.2-.4.3-.7.5-1.1.2-.4.3-.7.4-.8,0-.2.2-.3.4-.4.2-.2.4-.4,1.1-.7h.1c.4-.3.7-.4,1.1-.4h.7c0,0,1.1-.1,1.1-.1h1.3c.4,0,.7,0,1.1,0,.5,0,.8.1,1.2.3l.6.2c.4.2.6.4.9.6.4.3.6.6.7.9l.2.5c.1.4.2.7.3,1.3.1.4.1.7.1,1.1,0,.4,0,.6-.1.8,0,.2-.2.4-.3.5-.1.1-.3.2-.7.3-.4,0-.8,0-1.3,0h-1.2s-.6,0-.6,0h-1.3c-.5,0-.8,0-1.2,0h-.6s-.6,0-.6,0c-.1,0-.3,0-.4,0ZM305.8,111.2c-.2.5.5.7,1,.7h.4s1.2,0,1.2,0h.6c0,0,.6,0,.6,0h.4c.1,0,.2,0,.3,0,.6,0,.7-.7.5-1.2,0-.1-.2-.2-.5-.3h-.1c-.4-.2-.7-.2-1.2-.3h-1.7c-.2.1-.3.2-.4.2-.5.1-.8.3-1,.7,0,0-.1.2-.1.3Z"/>
    <path d="M321.4,111.3v-.5c0-.4,0-.7,0-1.2h0c.1-.5.3-.8.6-1.1.3-.3.5-.6.8-.8h0c.4-.2.7-.4,1-.5l.6-.2c.4-.1.8-.1,1.2-.1h.6c.4,0,.6,0,.6,0,.5.1.8.2,1.2.4,0,0,0,0,0,0,.4.3.6.7,1,.5,0,0,0,0,0,0,.4-.3.6-.6,1.1-.6h.5c0,0,.7,0,.7,0h.4c.5.1.9.3,1.1.8,0,.1,0,.2,0,.4v.4c0,0,0,.6,0,.6h0c0,.5,0,.7,0,1,0,.5-.3.9-.8,1.1,0,0-.2,0-.3,0h-.4c-.4,0-.7,0-1.1,0-.5-.1-.7-.2-.8-.3-.5-.5-.8-.7-1-.8-.1,0-.2,0-.4,0-.3,0-.5,0-.7,0-.7,0-1.1,0-1.6,0-.5,0-.7,0-.9.2-.2.2-.3.4-.2.8,0,.4.1.6.3.7.1,0,.3.1.4.1.3,0,.6,0,1,0h1.2c.2,0,.4,0,.6,0,.5,0,.8,0,1.2,0h0c.4,0,1.1.1,1.2.1.5,0,.8,0,1.2.3.1,0,.3.2.4.3.3.3.4.4.4.4.3.4.4.5.4.5.1.5.2.7.2,1.1v.7c0,.5,0,.8-.1,1.2,0,.2-.1.3-.2.5,0,.2-.2.3-.3.5-.3.4-.5.6-.9.8-.2.1-.4.2-.5.3,0,0,0,0,0,0-.4.2-.7.3-1.1.4h-.7c0,.1-.6.2-.6.2h-.5c-.4,0-.8,0-1.2-.2h0c-.4,0-.7-.1-1.1-.4-.5-.3-.9-.4-1.2-.3-.5.1-.7.4-1.2.5h-.6c0,0-.5,0-.5,0-.5,0-1-.2-1.1-.7,0-.1,0-.2,0-.3,0-.4-.1-.8,0-1.2,0-.2,0-.4,0-.6v-.3c0-.5.2-.9.6-1.1.2,0,.3,0,.5,0h.4s0,0,0,0c.5,0,.8,0,1.2,0,.5.1.7.2.9.4.6.5,1,.6,1.5.7h1.2c.5,0,.9,0,1.3,0,.4-.1.6-.2.7-.3s.2-.3.1-.7c0-.4-.2-.6-.4-.7-.3,0-.5-.1-1-.2h-1.3c0-.1-.6-.2-.6-.2h-1.8c-.5,0-1.2,0-1.2,0-.5,0-.8,0-1.2-.3-.1,0-.2-.2-.4-.3-.3-.2-.5-.5-.7-.9,0-.2-.1-.3-.2-.5,0-.2,0-.4,0-.6h0Z"/>
    <path d="M335.4,116c.3-.3.5-.7.6-1.1v-.5c0,0,.1-.6.1-.6v-1.3c0-.4,0-.8,0-1.2h0c0-.5,0-.8,0-1.3v-1.3s0-.7,0-.7v-.6c0,0,0-.6,0-.6v-.7c0,0,0-.4,0-.4,0-.6-.3-.9-.7-1.2h-.1c-.4-.4-.6-.5-.7-.7-.1-.2-.1-.4,0-.8,0-.4.1-.6.3-.8.1-.2.2-.3.4-.4.2-.1.5-.2,1.2-.3h.2s.9,0,.9,0c.7,0,1.1,0,1.3.2.2.1.3.2.5.4.1.2.2.6.1,1.3v.7c0,.5,0,.8,0,1.2,0,.4,0,.7,0,1.2,0,0,0,.1,0,.2.2.6.6.7.8.6.7-.3,1-.4,1.5-.4.4,0,.7,0,1.1,0,.5,0,.8.1,1.1.3l.6.3c.4.2.6.3.7.5.2.2.3.3.5.7.3.4.5.6.6.8.1.2.2.4.3.9l.2.6c.1.4.1.8.1,1.5,0,.2,0,.5,0,.9,0,.2,0,.4,0,.6v.6s0,.4,0,.4c0,.5.2.9.5,1.2.2.3.4.5.5,1,.1.4.2.7.1,1s-.1.5-.2.7c-.1.3-.3.4-.5.5-.2.1-.6.2-1.3.2h-.6c-.5,0-.8,0-1.2,0h-.2c-.7,0-1-.1-1.2-.2-.2-.1-.4-.3-.4-.5-.1-.2-.2-.4-.2-.7s0-.4,0-.7c0-.3,0-.5.2-.6,0-.2.3-.4.7-1,.2-.3.3-.5.4-1,0-.2,0-.4,0-.8v-1.1c0-.2,0-.4-.1-.6,0-.2,0-.4-.1-.5-.2-.4-.4-.7-.7-1,0,0-.2-.1-.5-.2-.4-.2-.7-.3-1.2-.3h0c-.4,0-.7.1-1.1.4-.4.3-.7.6-.7,1.1v.6c0,0,0,.5,0,.5v.6c0,0,0,0,0,0,0,.4,0,.7,0,1.1v.3c0,.5.2.9.5,1.2h0c.5.6.7,1,.7,1.6,0,.6,0,.9-.1,1.1-.1.2-.2.3-.4.4-.2.1-.4.2-.9.2-.4,0-.8,0-1.2,0h-.6c0,0-.5,0-.5,0h-.2c-.7,0-1-.1-1.2-.3-.2-.1-.4-.2-.4-.4-.1-.2-.1-.4-.2-.7s0-.5,0-1c0-.4.2-.6.5-.9Z"/>
    <path d="M353.7,119.5h-.6c0-.1-.1-.1-.2-.1-.7-.1-1.1-.3-1.5-.5-.4-.2-.5-.3-.7-.4-.2-.1-.3-.3-.4-.4-.2-.2-.3-.4-.4-.7l-.3-.7c0-.2,0-.4-.1-.5,0-.5-.2-.8-.2-1.2,0-.2,0-.4,0-.6,0-.4,0-.8,0-1.5v-1c0,0,.1-.6.1-.6v-.5c.1,0,.2-.7.2-.7.1-.4.3-.8.6-1.4v-.2c.3-.3.5-.5.6-.7.2-.2.3-.3.7-.5l.5-.2c.4-.2.7-.3.9-.3.1,0,.2,0,.3,0,.5,0,.8,0,1.2,0h2.5c0,0,1.2.4,1.2.4.4.1.6.3,1,.5.3.2.5.4.6.6l.2.3v.2c.4.6.6,1,.7,1.5.1.4.1.7.1,1.2v.6c0,0,0,.5,0,.5v2.5s-.1.6-.1.6v.7c0,0-.2.6-.2.6-.2.4-.3.7-.4.9s-.3.4-.6.7c-.3.3-.6.5-1,.6l-.6.2c-.2,0-.4.2-.5.2-.4.1-.8.2-1.2.2-.2,0-.4,0-.6,0h-1.2c0,0-.6-.1-.6-.1ZM352.2,114.4c0,.1,0,.3.1.4.1.2.2.4.4.5.4.3.7.4,1.2.5h.9c0,0,1,0,1,0h0c.4,0,.8-.1,1.2-.2.1,0,.3-.1.4-.2.4-.3.6-.6.7-1h0c.1-.5.1-.8.1-1.3s0-.7-.1-1.2h0c-.1-.4-.2-.7-.5-1,0,0-.2,0-.5-.2-.4-.2-.8-.2-1.2-.2h-1.3c-.4,0-.7.2-1.1.3-.2,0-.4.2-.5.2-.2.1-.3.3-.4.4-.3.4-.3.7-.4,1.2,0,0,0,.3,0,.7v1.2Z"/>
    <path d="M375,109.9c-.3.4-.5.6-.7,1.1,0,.1-.1.3-.2.7,0,0,0,.3,0,.7h0v1.4s0,.7,0,.7v.2c0,.5.2.9.5,1.2s.3.2.6.4c.2.1.3.2.3.3,0,.2.1.5.1,1,0,.5,0,.7-.2.9-.1.2-.3.3-.4.4s-.5.2-1.3.2h-.2c-.4,0-.7,0-1.1,0-.4,0-.7-.2-1.1-.6-.4-.3-.7-.4-1,0-.2.2-.3.3-.4.4-.2.1-.5.2-1,.3-.5.1-.9.2-1.6.2h-.3c-.4,0-.6-.1-.8-.2-.2,0-.4-.2-.8-.4l-.6-.3c-.4-.2-.5-.3-.7-.5s-.3-.4-.5-.7l-.3-.5-.2-.6c-.1-.4-.2-.8-.2-1.4v-.9s0-.7,0-.7v-.6s0-.7,0-.7v-.2c-.1-.5-.2-.8-.4-1.2s-.3-.4-.5-.6-.2-.2-.2-.3c0-.2-.1-.5-.2-1.1,0-.5,0-.8.2-1,0-.2.2-.3.4-.4.2-.1.5-.2,1.2-.3h.3c0,0,.6,0,.6,0h.6s.6.1.6.1h.3c.7,0,1.1,0,1.2.2.2.1.3.2.4.4.1.2.2.4.2.7,0,.3,0,.5,0,.7s-.2.5-.4.9l-.3.4c-.3.4-.4.7-.6,1.1-.1.3-.2.6-.2,1v1c0,0,0,.2,0,.2,0,.5.2.8.3,1.2.2.4.4.6.8.9.3.2.6.3,1,.4.2,0,.4,0,.5,0,.5,0,.8-.1,1.2-.4.4-.2.6-.5.7-1,0-.4.1-.7.1-1.2v-.5c0,0,0-.6,0-.6v-.5c0,0,0-.3,0-.3,0-.5-.2-.9-.6-1.2l-.2-.2c-.3-.2-.4-.4-.5-.6s-.2-.4-.2-.7,0-.5,0-.8c0-.3,0-.5.1-.7,0-.2.2-.3.4-.4.2,0,.6-.1,1.2-.2h.3c.2,0,.4,0,.5,0,.5,0,.8,0,1.2,0h.3c.7,0,1.1,0,1.3.2s.3.2.4.5v.3c.2.5.2.8.1,1.2,0,.2-.2.4-.3.7Z"/>
    <path d="M376.9,104c-.1-.3-.1-.5,0-.9s.2-.6.3-.8c.1-.2.3-.3.4-.4s.5-.2,1.2-.3h.2c.4,0,.8-.1,1.3,0,.5,0,.7.1.9.2.2.1.3.2.4.4,0,.2.1.5.2,1.2v.3c0,.4,0,.7,0,1.1,0,.4,0,.7,0,1.2,0,.2,0,.4,0,.6h0c0,.5,0,.8,0,1.2h0s0,.6,0,.6c0,.5,0,.8,0,1.2s0,.4,0,.6v1.1c0,.5,0,.8,0,1.2h0c0,.5,0,.8,0,1.2v.9c0,.5.2.8.5,1.2,0,0,.2.2.5.5.2.2.3.4.3.6.1.4.2.6.1.9s-.1.5-.2.6c0,.2-.2.3-.4.4-.2.1-.6.2-1.3.3h-.2s-.6,0-.6,0h-.6c0,0-.6,0-.6,0h-.6c-.2,0-.4,0-.6,0-.7-.1-.9-.4-1-.6-.1-.1-.2-.4-.2-.6,0-.3,0-.5,0-.8,0-.3.1-.4.2-.6,0-.1.1-.2.3-.3.4-.4.6-.6.8-1,0,0,0-.2.1-.7h0c0-.1.1-.8.1-.8h0c0-.5,0-.8,0-1.2,0-.2,0-.4,0-.6v-.6c0-.4,0-.8,0-1.2,0-.2,0-.4,0-.7v-.6c0,0,0-.7,0-.7v-.6s0-.7,0-.7v-.6s-.1-.5-.1-.5c0-.6-.3-.9-.7-1.1-.4-.2-.6-.4-.7-.6Z"/>
    <path d="M395.2,115.9c.2.4.5.5.8.6.1,0,.2.2.3.2.1.1.2.3.2.5s0,.4,0,.7-.1.5-.2.7c-.1.2-.2.3-.4.4-.2.1-.4.2-.9.2-.5,0-.7,0-1,0h-.3c-.5-.2-.8-.4-1.3-.4s-.6,0-.9.2l-.6.2c-.4.2-.8.2-1.3.2h-1.2c-.4,0-.8,0-1.2-.1h-.3c-.7-.4-1-.6-1.3-.9l-.5-.4c-.3-.3-.5-.6-.7-1l-.3-.6-.2-.5c-.2-.5-.3-.8-.3-1.2v-.7c-.1,0-.2-.5-.2-.5v-1.3c0-.3.1-.4.1-.6,0-.5.1-.8.2-1.2,0-.2.1-.4.2-.6l.3-.6c.2-.4.3-.6.4-.7s.2-.3.4-.5c0,0,.2-.1.3-.2.4-.2.7-.4,1.1-.5.2,0,.5-.1.9-.2h.4c0,0,1.2-.2,1.2-.2h.6s.4,0,.4,0c.2,0,.4,0,.5,0,.5,0,.7-.5.8-1,0,0,0-.3,0-.8,0-.2,0-.3-.1-.4l-.5-.3c-.6-.4-.8-.6-.9-.8-.1-.2-.2-.4-.2-.8s0-.6.2-.8.3-.3.4-.4.5-.1,1.2-.2h.8c.4,0,.6,0,1,0,.4,0,.6.1.8.3s.3.3.5.7c.2.4.2.9.2,1.6v.8c0,0,0,.6,0,.6,0,.5,0,.8,0,1.2v1.2c0,.5,0,.8,0,1.3h0v.6c0,.4,0,.7,0,1.2v.7c0,0,0,.6,0,.6v.6c0,0,0,.5,0,.5,0,.3,0,.5,0,.6,0,.5,0,.8,0,1.2v.4c0,.1.1.2.2.3ZM391.7,113c0-.4,0-.7,0-1.2v-.3c0-.5,0-.8-.2-1.2,0,0-.6-.5-1.1-.6h-.4s-.7,0-.7,0h0c-.4,0-.8.1-1.2.3,0,0-.2.2-.5.5-.1.1-.2.3-.3.4-.3.4-.3.7-.4,1.2h0c0,0,0,1.3,0,1.3h0c0,.5,0,.8.2,1.2,0,.2.1.4.2.6.1.2.2.3.3.4.4.3.7.4,1.1.5,0,0,.2,0,.6,0h0c.5,0,.8,0,1.2-.2.2,0,.4-.2.5-.3.4-.4.3-.7.3-1.2v-.7c0,0,0-.7,0-.7Z"/>
    <path d="M403.9,103.9c0-.2-.1-.5,0-.8,0-.4.2-.7.5-1,.3-.3.7-.4,1.4-.6h.2c.6,0,1,0,1.4,0,.5,0,.7.1.9.2.2.1.3.2.4.4,0,.2.1.5.1,1.3v.8c0,0,0,.6,0,.6,0,.4,0,.8,0,1.2,0,.1,0,.3,0,.4.2.5.6.6,1.1.7.3,0,.6,0,1.1,0,.2,0,.4,0,.7,0,.4,0,.7,0,1.2.1.5.1.8.3,1.2.4.4.2.7.4,1,.7.2.2.3.3.4.5.3.4.4.7.6,1.1,0,.2.1.4.2.6l.2.5v.7c.1,0,.2.6.2.6v.3c0,.7,0,1.1,0,1.6v.5s-.1.7-.1.7c-.1.4-.2.7-.4,1.2l-.3.6c-.2.4-.4.6-.7.9l-.5.4-.4.3c-.4.3-.7.4-1.1.5h-.6c0,.1-.9.2-.9.2-.7,0-1.1,0-1.5,0-.4,0-.7-.2-1.1-.3-.4-.2-.7-.2-1.2-.2s-.5,0-.9.2c-.2,0-.3.1-.4.2-.2,0-.5,0-1,0-.5,0-.8,0-.9-.2s-.3-.2-.4-.4c-.1-.2-.2-.4-.2-.7,0-.3,0-.6,0-1.1.2-.5.5-.8,1.1-1.3,0,0,.2-.3.3-.8.1-.4.2-.7.2-1.1v-1.2s0-.6,0-.6v-.7s0-1.2,0-1.2v-.7s0-.6,0-.6v-.7c0-.4,0-.7,0-1.2h0c0-.5,0-.8-.1-1.3,0-.4-.3-.7-.7-1s-.6-.4-.7-.6ZM408.9,115.6c0,.1.3.2.8.4.3.1.6.1,1,.1h0c.5,0,.8,0,1.3-.2-7,2.4-2,.7-.2,0,.2-.1.4-.2.6-.3.2-.1.3-.3.4-.4.3-.4.4-.8.4-1.2h0c0-.5.1-.9.1-1.3s0-.8-.1-1.2h0c0-.1-.1-.3-.2-.5-.1-.2-.2-.4-.3-.5-.3-.4-.7-.5-1.1-.6-.4-.1-.7-.2-1.2-.2h-.5c-.2,0-.4.1-.6.2-.3.1-.4.3-.5.5-.2.4-.2.7-.2,1.2v.9s0,.6,0,.6v.7s0,.6,0,.6c0,.5,0,.8.2,1.2Z"/>
    <path d="M421.7,113.7c-.5.2-.6.7-.6,1.2,0,0,0,.2,0,.2,0,.2.2.4.3.5.3.4.6.5,1,.6.4.1.7.1,1.2.2h1.2c.4,0,.7,0,1.2-.2,0,0,.2-.1.6-.4l.6-.4c.4-.2.8-.3,1.2-.3s.7,0,.8.2c.1.2.2.3.3.5,0,.3,0,.5,0,.9l-.2.5c-.2.4-.3.6-.4.8-.1.2-.3.3-.4.5-.2.2-.4.3-.7.4l-.6.2c-.4.2-.7.2-1.1.3-.4.1-.8.1-1.3.1h-1.1c0,0-.6,0-.6,0h-.6s-.6-.1-.6-.1c-.4,0-.7-.2-1.2-.3-.4-.1-.7-.3-1-.5-.3-.3-.5-.6-.8-1l-.3-.4c-.2-.5-.3-.8-.4-1.1v-.7c-.1,0-.2-.6-.2-.6v-1.2s0-1.1,0-1.1v-.7c0,0,.1-.6.1-.6v-.5c.2-.4.3-.7.5-1.1.2-.4.3-.7.4-.8,0-.2.2-.3.4-.4.2-.2.4-.4,1.1-.7h.1c.4-.3.7-.4,1.1-.4h.7c0,0,1.1-.1,1.1-.1h1.3c.4,0,.7,0,1.1,0,.5,0,.8.1,1.2.3l.6.2c.4.2.6.4.9.6.4.3.6.6.7.9l.2.5c.1.4.2.7.3,1.3.1.4.1.7.1,1.1,0,.4,0,.6-.1.8,0,.2-.2.4-.3.5-.1.1-.3.2-.7.3-.4,0-.8,0-1.3,0h-1.2s-.6,0-.6,0h-1.3c-.5,0-.8,0-1.2,0h-.6s-.6,0-.6,0c-.1,0-.3,0-.4,0ZM421.5,111.2c-.2.5.5.7,1,.7h.4s1.2,0,1.2,0h.6c0,0,.6,0,.6,0h.4c.1,0,.2,0,.3,0,.6,0,.7-.7.5-1.2,0-.1-.2-.2-.5-.3h-.1c-.4-.2-.7-.2-1.2-.3h-1.7c-.2.1-.3.2-.4.2-.5.1-.8.3-1,.7,0,0-.1.2-.1.3Z"/>
    <path d="M446.4,111.9c0,0-.1,0-.2-.1-.4-.4-.5-.6-.9-.9-.3-.3-.5-.4-.9-.4h-.6c0,0-1.3,0-1.3,0h0c-.2,0-.3,0-.5,0-.5,0-.8.1-1.2.3,0,0-.5.5-.6.9v.7c-.2.4-.2.7-.2,1.2v.7s.1.6.1.6c0,.2.1.3.2.4.2.4.5.6,1,.8.4.1.7.2,1.1.2h1.9c0,0,.5-.1.5-.1.5,0,.8-.2,1.2-.5l.4-.3c.4-.3.8-.4,1.2-.4.4,0,.6.2.7.3.1.2.2.3.2.4s0,.5-.2,1.2v.2c0,0-.3.6-.3.6-.2.4-.4.6-.6.8-.2.2-.3.3-.5.4-.2.1-.4.2-.9.4h-.3c-.7.3-1,.4-1.4.4h-.7c0,0-.3,0-.3,0-.4,0-.7,0-.9,0-.5,0-.8,0-1.2-.1s-.4,0-.7-.1h-.6c-.4-.2-.6-.3-.8-.4s-.4-.2-.7-.5l-.4-.4c-.3-.3-.5-.6-.6-1s-.2-.4-.2-.6c-.1-.5-.1-.8-.2-1.2,0-.2,0-.4,0-.6v-.9c0-.7,0-1.1,0-1.5v-.6c0-.4,0-.8.2-1.2l.2-.6.2-.6c.1-.4.2-.7.4-.8.1-.2.3-.3.6-.6.3-.2.6-.4,1-.5.2-.1.4-.2.6-.2.4-.1.7-.1.8-.2.7-.1,1.1-.2,1.8-.1h.4c.4.1.7.2.9.3.2,0,.4.3.7.6.4.4.7.4.9,0,.2-.3.3-.4.4-.5.2,0,.5-.1,1-.1.5,0,.8,0,1.1.2.2.2.3.3.4.4s.1.5.2,1.2v.4c0,.5.1.8,0,1.3,0,.5-.1.7-.3.9-.1.2-.2.3-.4.4-.2.1-.3.2-.6.2-.3,0-.5,0-.7,0-.2,0-.4,0-.6-.2Z"/>
    <path d="M454.6,119.5h-.6c0-.1-.1-.1-.2-.1-.7-.1-1.1-.3-1.5-.5-.4-.2-.5-.3-.7-.4-.2-.1-.3-.3-.4-.4-.2-.2-.3-.4-.4-.7l-.3-.7c0-.2,0-.4-.1-.5,0-.5-.2-.8-.2-1.2,0-.2,0-.4,0-.6,0-.4,0-.8,0-1.5v-1c0,0,.1-.6.1-.6v-.5c.1,0,.2-.7.2-.7.1-.4.3-.8.6-1.4v-.2c.3-.3.5-.5.6-.7.2-.2.3-.3.7-.5l.5-.2c.4-.2.7-.3.9-.3.1,0,.2,0,.3,0,.5,0,.8,0,1.2,0h2.5c0,0,1.2.4,1.2.4.4.1.6.3,1,.5.3.2.5.4.6.6l.2.3v.2c.4.6.6,1,.7,1.5.1.4.1.7.1,1.2v.6c0,0,0,.5,0,.5v2.5s-.1.6-.1.6v.7c0,0-.2.6-.2.6-.2.4-.3.7-.4.9s-.3.4-.6.7c-.3.3-.6.5-1,.6l-.6.2c-.2,0-.4.2-.5.2-.4.1-.8.2-1.2.2-.2,0-.4,0-.6,0h-1.2c0,0-.6-.1-.6-.1ZM453,114.4c0,.1,0,.3.1.4.1.2.2.4.4.5.4.3.7.4,1.2.5h.9c0,0,1,0,1,0h0c.4,0,.8-.1,1.2-.2.1,0,.3-.1.4-.2.4-.3.6-.6.7-1h0c.1-.5.1-.8.1-1.3s0-.7-.1-1.2h0c-.1-.4-.2-.7-.5-1,0,0-.2,0-.5-.2-.4-.2-.8-.2-1.2-.2h-1.3c-.4,0-.7.2-1.1.3-.2,0-.4.2-.5.2-.2.1-.3.3-.4.4-.3.4-.3.7-.4,1.2,0,0,0,.3,0,.7v1.2Z"/>
    <path d="M467.4,119.5h-.6c0-.1-.1-.1-.2-.1-.7-.1-1.1-.3-1.5-.5-.4-.2-.5-.3-.7-.4-.2-.1-.3-.3-.4-.4-.2-.2-.3-.4-.4-.7l-.3-.7c0-.2,0-.4-.1-.5,0-.5-.2-.8-.2-1.2,0-.2,0-.4,0-.6,0-.4,0-.8,0-1.5v-1c0,0,.1-.6.1-.6v-.5c.1,0,.2-.7.2-.7.1-.4.3-.8.6-1.4v-.2c.3-.3.5-.5.6-.7s.3-.3.7-.5l.5-.2c.4-.2.7-.3.9-.3.1,0,.2,0,.3,0,.5,0,.8,0,1.2,0h2.5c0,0,1.2.4,1.2.4.4.1.6.3,1,.5.3.2.5.4.6.6l.2.3v.2c.4.6.6,1,.7,1.5.1.4.1.7.1,1.2v.6c0,0,0,.5,0,.5v2.5s-.1.6-.1.6v.7c0,0-.2.6-.2.6-.2.4-.3.7-.4.9s-.3.4-.6.7c-.3.3-.6.5-1,.6l-.6.2c-.2,0-.4.2-.5.2-.4.1-.8.2-1.2.2-.2,0-.4,0-.6,0h-1.2c0,0-.6-.1-.6-.1ZM465.8,114.4c0,.1,0,.3.1.4.1.2.2.4.4.5.4.3.7.4,1.2.5h.9c0,0,1,0,1,0h0c.4,0,.8-.1,1.2-.2.1,0,.3-.1.4-.2.4-.3.6-.6.7-1h0c.1-.5.1-.8.1-1.3s0-.7-.1-1.2h0c-.1-.4-.2-.7-.5-1l-.5-.2c-.4-.2-.8-.2-1.2-.2h-1.3c-.4,0-.7.2-1.1.3-.2,0-.4.2-.5.2-.2.1-.3.3-.4.4-.3.4-.3.7-.4,1.2,0,0,0,.3,0,.7v1.2Z"/>
    <path d="M475.2,104c-.1-.3-.1-.5,0-.9s.2-.6.3-.8c.1-.2.3-.3.4-.4s.5-.2,1.2-.3h.2c.4,0,.8-.1,1.3,0,.5,0,.7.1.9.2.2.1.3.2.4.4,0,.2.1.5.2,1.2v.3c0,.4,0,.7,0,1.1,0,.4,0,.7,0,1.2,0,.2,0,.4,0,.6h0c0,.5,0,.8,0,1.2h0s0,.6,0,.6c0,.5,0,.8,0,1.2s0,.4,0,.6v1.1c0,.5,0,.8,0,1.2h0c0,.5,0,.8,0,1.2v.9c0,.5.2.8.5,1.2,0,0,.2.2.5.5.2.2.3.4.3.6.1.4.2.6.1.9s-.1.5-.2.6c0,.2-.2.3-.4.4-.2.1-.6.2-1.3.3h-.2s-.6,0-.6,0h-.6c0,0-.6,0-.6,0h-.6c-.2,0-.4,0-.6,0-.7-.1-.9-.4-1-.6-.1-.1-.2-.4-.2-.6,0-.3,0-.5,0-.8,0-.3.1-.4.2-.6,0-.1.1-.2.3-.3.4-.4.6-.6.8-1,0,0,0-.2.1-.7h0c0-.1.1-.8.1-.8h0c0-.5,0-.8,0-1.2,0-.2,0-.4,0-.6v-.6c0-.4,0-.8,0-1.2,0-.2,0-.4,0-.7v-.6c0,0,0-.7,0-.7v-.6s0-.7,0-.7v-.6s-.1-.5-.1-.5c0-.6-.3-.9-.7-1.1-.4-.2-.6-.4-.7-.6Z"/>
  </g>
</svg>